<?xml version="1.0" encoding="utf-8"?>
<!-- Generator: Adobe Illustrator 18.1.1, SVG Export Plug-In . SVG Version: 6.00 Build 0)  -->
<svg version="1.1" id="Layer_1" xmlns="http://www.w3.org/2000/svg" xmlns:xlink="http://www.w3.org/1999/xlink" x="0px" y="0px"
	 viewBox="0 0 78.3 37.1" enable-background="new 0 0 78.3 37.1" xml:space="preserve">
<g>
	<g>
		<circle fill="none" stroke="#535353" stroke-width="0.5" stroke-miterlimit="10" cx="18.6" cy="18.6" r="18.3"/>
		<circle fill="none" stroke="#535353" stroke-width="0.5" stroke-miterlimit="10" cx="23.2" cy="18.6" r="18.3"/>
		<circle fill="none" stroke="#535353" stroke-width="0.5" stroke-miterlimit="10" cx="27.7" cy="18.6" r="18.3"/>
		<circle fill="none" stroke="#535353" stroke-width="0.5" stroke-miterlimit="10" cx="32.3" cy="18.6" r="18.3"/>
		<circle fill="none" stroke="#535353" stroke-width="0.5" stroke-miterlimit="10" cx="36.9" cy="18.6" r="18.3"/>
		<circle fill="none" stroke="#535353" stroke-width="0.5" stroke-miterlimit="10" cx="41.4" cy="18.6" r="18.3"/>
		<circle fill="none" stroke="#535353" stroke-width="0.5" stroke-miterlimit="10" cx="46" cy="18.6" r="18.3"/>
		<circle fill="none" stroke="#535353" stroke-width="0.5" stroke-miterlimit="10" cx="50.6" cy="18.6" r="18.3"/>
		<circle fill="none" stroke="#535353" stroke-width="0.5" stroke-miterlimit="10" cx="55.1" cy="18.6" r="18.3"/>
		<circle fill="none" stroke="#535353" stroke-width="0.5" stroke-miterlimit="10" cx="59.7" cy="18.6" r="18.3"/>
	</g>
	<circle fill="#FFFFFF" stroke="#4B4F50" stroke-width="0.5" stroke-miterlimit="10" cx="18.6" cy="18.6" r="18.3"/>
	<circle fill="#FFFFFF" stroke="#4B4F50" stroke-width="0.5" stroke-miterlimit="10" cx="59.7" cy="18.6" r="18.3"/>
	<path fill="none" stroke="#4B4F50" stroke-width="0.5" stroke-miterlimit="10" d="M59.7,0.3C69.8,0.3,78,8.5,78,18.6
		s-8.2,18.3-18.3,18.3H18.6c-10.1,0-18.3-8.2-18.3-18.3S8.5,0.3,18.6,0.3H59.7z"/>
	<g>
		<text transform="matrix(1 0 0 1 13.6448 25.3476)" fill="#4B4F50" font-family="'ITCAvantGardeStd-Bk'" font-size="26.6319">r</text>
	</g>
	<g>
		<text transform="matrix(1 0 0 1 52.5491 25.335)" fill="#4B4F50" font-family="'ITCAvantGardeStd-Bk'" font-size="26.6319">p</text>
	</g>
</g>
</svg>
